<svg width="90" height="90" fill="none" xmlns="http://www.w3.org/2000/svg"><g clip-path="url(#a)"><path d="M77.72 90c8.98 0 7.6-9.82 7.6-13.64 0-4.87-2.91-9.06-7.09-10.93l-21.36-9.67s-.08-.03-.13-.04c-.73 5.83-5.81 7.6-11.83 7.6-6.02 0-10.9-1.77-11.63-7.6-.05.01-.09.02-.13.04l-21.36 9.67C7.61 67.3 4.7 71.49 4.7 76.36 4.7 80.18 3.32 90 12.3 90h65.43-.01z" fill="#B3ACA8"/><path d="M25.36 37.15v6.49s2.7 3.25 10.64 3.25-9.98-11.45-9.98-11.45l-.65 1.71h-.01zM64.63 37.15v6.49s-2.7 3.25-10.64 3.25c-7.93 0 9.98-11.45 9.98-11.45l.65 1.71h.01z" fill="#4A4743"/><path d="M58.54 52.06H31.46v9.51h27.08v-9.51z" fill="#D1CCC5"/><path d="M56.91 49.04H33.09v15.25h23.82V49.04z" fill="#D5A47D"/><path d="M63.01 32.59c0 13.79-8.07 24.97-18.02 24.97S26.98 46.38 26.98 32.59 35.05 7.61 45 7.61s18.02 11.18 18.02 24.98h-.01z" fill="#E3C29C"/><path d="M63.01 28.57H26.99V18.39l18.54-4.62 17.48 4.62v10.18z" fill="#E3C29C"/><path d="M26.99 18.46c0-8.57 8.06-15.51 18.01-15.51 9.95 0 18.01 6.94 18.01 15.51h-2.8l-14.9-4.41-15.44 4.41h-2.88zM66.01 28.62c0 1.66-1.34 3.01-3 3.01s-3-1.34-3-3.01c0-1.67 1.34-3 3-3s3 1.34 3 3zM66.01 34.63c0 1.65-1.34 3-3 3s-3-1.34-3-3 1.34-3 3-3 3 1.34 3 3z" fill="#E3C29C"/><path d="M66.01 28.62h-6v6.01h6v-6.01zM29.99 28.62h-6.01v6.01h6.01v-6.01z" fill="#E3C29C"/><path d="M29.99 28.62a3.01 3.01 0 0 1-3 3.01c-1.65 0-3.01-1.34-3.01-3.01 0-1.67 1.34-3 3.01-3 1.67 0 3 1.34 3 3zM29.99 34.63c0 1.65-1.35 3-3 3a3.01 3.01 0 0 1-3.01-3c0-1.66 1.34-3 3.01-3 1.67 0 3 1.34 3 3z" fill="#E3C29C"/><path d="m58.54 52.06 5.44 6.74-10.79 13.68-5.44-7.66L45 66.44V64.3s9.14-4.13 13.54-12.23v-.01zM31.46 52.06l-5.44 6.74 10.79 13.68 5.44-7.66L45 66.44V64.3s-9.14-4.13-13.54-12.23v-.01z" fill="#fff"/><path d="M63.61 28.53c-.7-.14-3.19-.76-7.21-.76s-8.67 1.3-9.81 1.44c-.75.09-1.2.11-1.43.11h-.32c-.22 0-.68-.02-1.45-.11-1.13-.14-5.79-1.44-9.8-1.44-4.01 0-6.5.62-7.21.76-.7.14-.65.54-.65.54l.12 1.81c.02.36.2.44.57.51.37.07.53.44.6.68.08.25.58 2.16.97 3.63.39 1.48 1.08 2.61 1.92 3.17.84.56 3.09.85 5.66.58 2.58-.26 4.38-1.25 5.54-2.57 1.16-1.32 1.55-2.6 2.11-4.16.45-1.25 1.3-1.4 1.63-1.41h.26c.33 0 1.18.15 1.63 1.41.56 1.56.95 2.84 2.11 4.16 1.16 1.32 2.96 2.3 5.54 2.57s4.82-.02 5.67-.58c.85-.56 1.53-1.7 1.92-3.17.39-1.48.89-3.39.97-3.63.08-.25.24-.62.61-.68.37-.07.55-.15.57-.51l.12-1.81s.06-.39-.65-.54h.01zM41.16 32c-.07 1.02-.15 2.79-.98 3.88-.83 1.08-1.94 1.9-3.62 2.17-1.68.28-3.43.39-4.91 0-1.47-.38-2-1.4-2.26-3.09-.26-1.69-.34-3.43 0-4.14 0 0 .53-1.58 3.45-1.68 2.92-.11 5.8.17 6.93.72 1.1.54 1.45 1.11 1.39 2.13V32zm19.43 2.96c-.25 1.68-.79 2.7-2.26 3.09-1.47.39-3.22.28-4.91 0-1.68-.27-2.79-1.09-3.62-2.17-.83-1.09-.91-2.86-.98-3.88-.06-1.02.29-1.59 1.39-2.13 1.12-.56 4.01-.83 6.93-.72 2.92.1 3.45 1.68 3.45 1.68.34.7.26 2.45 0 4.14v-.01z" fill="#083A66"/><path d="M62.67 27.77s.53-8.41-15.14-10.56C31.86 15.05 29.99 4.83 29.99 4.83s6.7-7.45 23.14-3.85c13.78 3.01 12.22 13.84 12.22 25.79 0 0-2.3-.42-2.68 1.01v-.01z" fill="#4A4743"/><path d="M29.99 4.83s-7.26 5.61-5.12 21.67c0 0 15.15-4.6 5.12-21.67z" fill="#4A4743"/><path d="M24.87 26.5s2.45-.25 2.45 1.28c0 0 .11-1.68 2.16-3.92 2.05-2.24-2.49-2.68-2.49-2.68l-2.12 5.33v-.01z" fill="#4A4743"/></g><defs><clipPath id="a"><path fill="#fff" d="M0 0h90v90H0z"/></clipPath></defs></svg>