<svg width="90" height="90" fill="none" xmlns="http://www.w3.org/2000/svg"><g clip-path="url(#a)"><path d="M77.71 83.88h1.41c.63-.02.77-.88.99-1.91l7.78-38.88c.54-3.51-1.07-3.89-3.89-3.89H30.36c-3.82 0-4.01 3.21-4.01 3.21l-3.7 2.06 55.06 39.42v-.01z" fill="#E2B664"/><path d="m82.29 39.19-3.17 44.69-11.75-.78-7.73-43.91h22.65z" fill="#CA9350"/><path d="M72.41 6.11H18.76a6.25 6.25 0 0 0-6.25 6.25v53.65a6.25 6.25 0 0 0 6.25 6.25h53.65a6.25 6.25 0 0 0 6.25-6.25V12.36a6.25 6.25 0 0 0-6.25-6.25z" fill="#9D6C3E"/><path d="M60.28 9.79h-14.7v14.7h14.7V9.79zM74.98 24.49h-14.7v14.7h14.7v-14.7zM16.18 24.49h14.7V9.79H19.71a3.53 3.53 0 0 0-3.53 3.53v11.17zM45.58 24.49h-14.7v14.7h14.7v-14.7zM30.88 39.18h-14.7v14.7h14.7v-14.7zM45.58 53.88h-14.7v14.7h14.7v-14.7zM60.28 39.18h-14.7v14.7h14.7v-14.7zM60.28 68.59h10.28c2.44 0 4.42-1.98 4.42-4.42V53.89h-14.7v14.7z" fill="#FBF3D8"/><path d="M16.13 69.37c3.4 0 53.75 2.58 57.47 2.58 3.72 0 4.96-3.77 4.96-3.77l-.73-4.66-3.01-19.53c-.47-2.38-3.15-2.76-5.78-2.71H39.77c-4.68 0-3.68-7.41-7.5-7.41H12.5v31.87s.23 3.63 3.63 3.63z" fill="#6A4632"/><path d="M30.88 39.19h5.62c-1.3-2.19-1.75-5.32-4.23-5.32h-1.39v5.32zM45.58 53.88h14.7V41.27h-14.7v12.61zM60.28 68.59h10.28c2.44 0 4.42-1.98 4.42-4.42V53.89h-14.7v14.7z" fill="#E2B664"/><path d="M79.12 83.88H16.33c-2.75.07-4.27-.63-4.95-3.36L2 40.07c0-1.85 1.65-3.36 3.66-3.36h22.99c3.82 0 2.81 7.16 7.49 7.16h29.27c2.64-.05 5.31.33 5.78 2.71l6.44 36.08c.4 1.43 1.49 1.22 1.49 1.22z" fill="#F9D983"/></g><defs><clipPath id="a"><path fill="#fff" d="M0 0h90v90H0z"/></clipPath></defs></svg>